<mxfile host="app.diagrams.net" modified="2023-03-22T07:33:48.526Z" agent="5.0 (Macintosh; Intel Mac OS X 10_15_7) AppleWebKit/537.36 (KHTML, like Gecko) Chrome/111.0.0.0 Safari/537.36" version="20.7.4" etag="gH0d46FBRHl3cBY1VjYC" type="github">
  <diagram id="eIiuQdGu3uwoYjff44iq" name="Page-1">
    <mxGraphModel dx="1362" dy="771" grid="1" gridSize="10" guides="1" tooltips="1" connect="1" arrows="1" fold="1" page="1" pageScale="1" pageWidth="850" pageHeight="1100" math="0" shadow="0">
      <root>
        <mxCell id="0" />
        <mxCell id="1" parent="0" />
        <mxCell id="sF5eqrgxLo2RfHiumnd4-3" style="edgeStyle=orthogonalEdgeStyle;rounded=0;orthogonalLoop=1;jettySize=auto;html=1;entryX=0;entryY=0.5;entryDx=0;entryDy=0;" edge="1" parent="1" source="sF5eqrgxLo2RfHiumnd4-1" target="sF5eqrgxLo2RfHiumnd4-2">
          <mxGeometry relative="1" as="geometry" />
        </mxCell>
        <mxCell id="sF5eqrgxLo2RfHiumnd4-4" value="[]Block" style="edgeLabel;html=1;align=center;verticalAlign=middle;resizable=0;points=[];" vertex="1" connectable="0" parent="sF5eqrgxLo2RfHiumnd4-3">
          <mxGeometry x="-0.502" y="5" relative="1" as="geometry">
            <mxPoint x="29" y="5" as="offset" />
          </mxGeometry>
        </mxCell>
        <mxCell id="sF5eqrgxLo2RfHiumnd4-1" value="EVM listener" style="rounded=0;whiteSpace=wrap;html=1;" vertex="1" parent="1">
          <mxGeometry x="60" y="80" width="120" height="60" as="geometry" />
        </mxCell>
        <mxCell id="sF5eqrgxLo2RfHiumnd4-6" style="edgeStyle=orthogonalEdgeStyle;rounded=0;orthogonalLoop=1;jettySize=auto;html=1;exitX=1;exitY=0.5;exitDx=0;exitDy=0;" edge="1" parent="1" source="sF5eqrgxLo2RfHiumnd4-2" target="sF5eqrgxLo2RfHiumnd4-5">
          <mxGeometry relative="1" as="geometry" />
        </mxCell>
        <mxCell id="sF5eqrgxLo2RfHiumnd4-7" value="[]Block" style="edgeLabel;html=1;align=center;verticalAlign=middle;resizable=0;points=[];" vertex="1" connectable="0" parent="sF5eqrgxLo2RfHiumnd4-6">
          <mxGeometry x="-0.6286" relative="1" as="geometry">
            <mxPoint y="1" as="offset" />
          </mxGeometry>
        </mxCell>
        <mxCell id="sF5eqrgxLo2RfHiumnd4-2" value="Message Broker&lt;br&gt;(Redis Streams)" style="rounded=0;whiteSpace=wrap;html=1;" vertex="1" parent="1">
          <mxGeometry x="360" y="80" width="120" height="60" as="geometry" />
        </mxCell>
        <mxCell id="sF5eqrgxLo2RfHiumnd4-11" style="edgeStyle=orthogonalEdgeStyle;rounded=0;orthogonalLoop=1;jettySize=auto;html=1;" edge="1" parent="1" source="sF5eqrgxLo2RfHiumnd4-5" target="sF5eqrgxLo2RfHiumnd4-10">
          <mxGeometry relative="1" as="geometry" />
        </mxCell>
        <mxCell id="sF5eqrgxLo2RfHiumnd4-12" value="[]TaskMessage" style="edgeLabel;html=1;align=center;verticalAlign=middle;resizable=0;points=[];" vertex="1" connectable="0" parent="sF5eqrgxLo2RfHiumnd4-11">
          <mxGeometry x="0.408" y="-2" relative="1" as="geometry">
            <mxPoint as="offset" />
          </mxGeometry>
        </mxCell>
        <mxCell id="sF5eqrgxLo2RfHiumnd4-5" value="Master" style="rounded=0;whiteSpace=wrap;html=1;" vertex="1" parent="1">
          <mxGeometry x="550" y="260" width="120" height="60" as="geometry" />
        </mxCell>
        <mxCell id="sF5eqrgxLo2RfHiumnd4-8" style="edgeStyle=orthogonalEdgeStyle;rounded=0;orthogonalLoop=1;jettySize=auto;html=1;exitX=1;exitY=0.25;exitDx=0;exitDy=0;" edge="1" parent="1" source="sF5eqrgxLo2RfHiumnd4-5" target="sF5eqrgxLo2RfHiumnd4-5">
          <mxGeometry relative="1" as="geometry" />
        </mxCell>
        <mxCell id="sF5eqrgxLo2RfHiumnd4-9" value="Break tasks from blocks" style="edgeLabel;html=1;align=center;verticalAlign=middle;resizable=0;points=[];" vertex="1" connectable="0" parent="sF5eqrgxLo2RfHiumnd4-8">
          <mxGeometry x="-0.6162" y="1" relative="1" as="geometry">
            <mxPoint x="60" as="offset" />
          </mxGeometry>
        </mxCell>
        <mxCell id="sF5eqrgxLo2RfHiumnd4-16" style="edgeStyle=orthogonalEdgeStyle;rounded=0;orthogonalLoop=1;jettySize=auto;html=1;entryX=0.5;entryY=0;entryDx=0;entryDy=0;" edge="1" parent="1" source="sF5eqrgxLo2RfHiumnd4-10" target="sF5eqrgxLo2RfHiumnd4-13">
          <mxGeometry relative="1" as="geometry" />
        </mxCell>
        <mxCell id="sF5eqrgxLo2RfHiumnd4-17" style="edgeStyle=orthogonalEdgeStyle;rounded=0;orthogonalLoop=1;jettySize=auto;html=1;exitX=0.5;exitY=1;exitDx=0;exitDy=0;entryX=0.5;entryY=0;entryDx=0;entryDy=0;" edge="1" parent="1" source="sF5eqrgxLo2RfHiumnd4-10" target="sF5eqrgxLo2RfHiumnd4-14">
          <mxGeometry relative="1" as="geometry" />
        </mxCell>
        <mxCell id="sF5eqrgxLo2RfHiumnd4-18" style="edgeStyle=orthogonalEdgeStyle;rounded=0;orthogonalLoop=1;jettySize=auto;html=1;exitX=0.5;exitY=1;exitDx=0;exitDy=0;" edge="1" parent="1" source="sF5eqrgxLo2RfHiumnd4-10" target="sF5eqrgxLo2RfHiumnd4-15">
          <mxGeometry relative="1" as="geometry" />
        </mxCell>
        <mxCell id="sF5eqrgxLo2RfHiumnd4-10" value="Task Queue&lt;br&gt;(Redis Streams)" style="rounded=0;whiteSpace=wrap;html=1;" vertex="1" parent="1">
          <mxGeometry x="180" y="260" width="120" height="60" as="geometry" />
        </mxCell>
        <mxCell id="sF5eqrgxLo2RfHiumnd4-13" value="Worker" style="rounded=0;whiteSpace=wrap;html=1;" vertex="1" parent="1">
          <mxGeometry x="70" y="510" width="120" height="60" as="geometry" />
        </mxCell>
        <mxCell id="sF5eqrgxLo2RfHiumnd4-14" value="Worker" style="rounded=0;whiteSpace=wrap;html=1;" vertex="1" parent="1">
          <mxGeometry x="260" y="510" width="120" height="60" as="geometry" />
        </mxCell>
        <mxCell id="sF5eqrgxLo2RfHiumnd4-15" value="&lt;meta charset=&quot;utf-8&quot;&gt;&lt;span style=&quot;color: rgb(0, 0, 0); font-family: Helvetica; font-size: 12px; font-style: normal; font-variant-ligatures: normal; font-variant-caps: normal; font-weight: 400; letter-spacing: normal; orphans: 2; text-align: center; text-indent: 0px; text-transform: none; widows: 2; word-spacing: 0px; -webkit-text-stroke-width: 0px; background-color: rgb(251, 251, 251); text-decoration-thickness: initial; text-decoration-style: initial; text-decoration-color: initial; float: none; display: inline !important;&quot;&gt;Worker&lt;/span&gt;" style="rounded=0;whiteSpace=wrap;html=1;" vertex="1" parent="1">
          <mxGeometry x="450" y="510" width="120" height="60" as="geometry" />
        </mxCell>
        <mxCell id="sF5eqrgxLo2RfHiumnd4-21" style="edgeStyle=orthogonalEdgeStyle;rounded=0;orthogonalLoop=1;jettySize=auto;html=1;exitX=0.5;exitY=1;exitDx=0;exitDy=0;" edge="1" parent="1" source="sF5eqrgxLo2RfHiumnd4-19" target="sF5eqrgxLo2RfHiumnd4-20">
          <mxGeometry relative="1" as="geometry" />
        </mxCell>
        <mxCell id="sF5eqrgxLo2RfHiumnd4-24" value="(1)" style="edgeLabel;html=1;align=center;verticalAlign=middle;resizable=0;points=[];" vertex="1" connectable="0" parent="sF5eqrgxLo2RfHiumnd4-21">
          <mxGeometry x="0.6375" y="1" relative="1" as="geometry">
            <mxPoint as="offset" />
          </mxGeometry>
        </mxCell>
        <mxCell id="sF5eqrgxLo2RfHiumnd4-22" style="edgeStyle=orthogonalEdgeStyle;rounded=0;orthogonalLoop=1;jettySize=auto;html=1;" edge="1" parent="1" source="sF5eqrgxLo2RfHiumnd4-19" target="sF5eqrgxLo2RfHiumnd4-10">
          <mxGeometry relative="1" as="geometry">
            <Array as="points">
              <mxPoint x="930" y="190" />
              <mxPoint x="240" y="190" />
            </Array>
          </mxGeometry>
        </mxCell>
        <mxCell id="sF5eqrgxLo2RfHiumnd4-23" value="UpdatePoolStateMessage" style="edgeLabel;html=1;align=center;verticalAlign=middle;resizable=0;points=[];" vertex="1" connectable="0" parent="sF5eqrgxLo2RfHiumnd4-22">
          <mxGeometry x="0.12" y="2" relative="1" as="geometry">
            <mxPoint as="offset" />
          </mxGeometry>
        </mxCell>
        <mxCell id="sF5eqrgxLo2RfHiumnd4-25" value="(2)" style="edgeLabel;html=1;align=center;verticalAlign=middle;resizable=0;points=[];" vertex="1" connectable="0" parent="sF5eqrgxLo2RfHiumnd4-22">
          <mxGeometry x="-0.585" y="3" relative="1" as="geometry">
            <mxPoint as="offset" />
          </mxGeometry>
        </mxCell>
        <mxCell id="sF5eqrgxLo2RfHiumnd4-19" value="New Pool Updaters&lt;br&gt;Runner" style="rounded=0;whiteSpace=wrap;html=1;" vertex="1" parent="1">
          <mxGeometry x="870" y="90" width="120" height="60" as="geometry" />
        </mxCell>
        <mxCell id="sF5eqrgxLo2RfHiumnd4-20" value="Datastore" style="shape=cylinder3;whiteSpace=wrap;html=1;boundedLbl=1;backgroundOutline=1;size=15;" vertex="1" parent="1">
          <mxGeometry x="900" y="390" width="60" height="80" as="geometry" />
        </mxCell>
        <mxCell id="sF5eqrgxLo2RfHiumnd4-27" value="generate UpdatePoolState messages in interval" style="text;html=1;strokeColor=none;fillColor=none;align=center;verticalAlign=middle;whiteSpace=wrap;rounded=0;" vertex="1" parent="1">
          <mxGeometry x="480" y="240" width="60" height="30" as="geometry" />
        </mxCell>
      </root>
    </mxGraphModel>
  </diagram>
</mxfile>
